<?xml version="1.0" standalone="no"?>
<!DOCTYPE svg PUBLIC "-//W3C//DTD SVG 20010904//EN"
 "http://www.w3.org/TR/2001/REC-SVG-20010904/DTD/svg10.dtd">
<svg version="1.0" xmlns="http://www.w3.org/2000/svg"
 width="418.000000pt" height="418.000000pt" viewBox="0 0 418.000000 418.000000"
 preserveAspectRatio="xMidYMid meet">
<metadata>
Created by potrace 1.14, written by Peter Selinger 2001-2017
</metadata>
<g transform="translate(0.000000,418.000000) scale(0.100000,-0.100000)"
fill="#000000" stroke="none">
<path d="M20 2090 l0 -2090 2070 0 2070 0 0 2090 0 2090 -2070 0 -2070 0 0
-2090z m420 415 l0 -125 95 0 95 0 0 125 0 125 165 0 165 0 0 -420 0 -420
-162 2 -163 3 -3 128 -3 127 -89 0 -89 0 -3 -127 -3 -128 -162 -3 -163 -2 0
420 0 420 160 0 160 0 0 -125z m1570 -35 l0 -160 -430 0 -430 0 0 160 0 160
430 0 430 0 0 -160z m1040 -260 l0 -420 -153 0 c-106 0 -157 4 -165 12 -9 9
-12 79 -12 255 l0 243 -95 0 -95 0 0 -255 0 -255 -165 0 -165 0 0 420 0 420
425 0 425 0 0 -420z m1020 277 c0 -108 -4 -148 -14 -163 -13 -18 -30 -19 -260
-22 l-246 -3 0 -89 0 -90 255 0 255 0 0 -165 0 -165 -420 0 -420 0 0 420 0
420 425 0 425 0 0 -143z m-2062 -524 l-3 -158 -40 -7 c-22 -4 -212 -7 -422 -7
l-383 -1 0 165 0 165 425 0 426 0 -3 -157z"/>
<path d="M150 2210 l0 -380 130 0 130 0 0 125 0 125 130 0 130 0 0 -125 0
-125 130 0 130 0 0 380 0 380 -130 0 -130 0 0 -125 0 -125 -130 0 -130 0 0
125 0 125 -130 0 -130 0 0 -380z"/>
<path d="M1190 2465 l0 -125 390 0 390 0 0 125 0 125 -390 0 -390 0 0 -125z"/>
<path d="M2240 2215 l0 -385 125 0 125 0 2 253 3 252 127 3 128 3 2 -253 3
-253 128 -3 127 -3 0 386 0 385 -385 0 -385 0 0 -385z"/>
<path d="M3260 2215 l0 -385 385 0 385 0 0 125 0 125 -255 0 -255 0 0 130 0
130 253 2 252 3 3 128 3 127 -386 0 -385 0 0 -385z"/>
<path d="M1190 1955 l0 -125 388 2 387 3 3 123 3 122 -391 0 -390 0 0 -125z"/>
</g>
</svg>
